<svg xmlns="http://www.w3.org/2000/svg" width="400" height="400" viewBox="0 0 400 400"><rect width="100%" height="100%" fill="#DDDDDD"/><path fill="#999999" d="M112.255 183.345h-21.19v14.13h17.89v7.09h-17.89v19.44h-8.91v-47.72h30.1v7.06Zm26.99 6.8h8.15v33.86h-4.98q-1.62 0-2.05-1.49l-.56-2.7q-2.08 2.11-4.58 3.41-2.51 1.31-5.91 1.31-2.77 0-4.9-.94-2.13-.94-3.58-2.66-1.45-1.72-2.2-4.07-.74-2.36-.74-5.2v-21.52h8.15v21.52q0 3.1 1.44 4.8 1.43 1.7 4.3 1.7 2.12 0 3.96-.94 1.85-.94 3.5-2.59v-24.49Zm23.27 1.49.56 2.67q1.02-1.02 2.16-1.9 1.14-.87 2.41-1.48 1.27-.61 2.72-.96 1.45-.35 3.17-.35 2.77 0 4.92.94 2.14.94 3.58 2.64 1.43 1.7 2.17 4.06.75 2.36.75 5.2v21.55h-8.15v-21.55q0-3.1-1.42-4.8-1.42-1.7-4.33-1.7-2.11 0-3.96.96-1.84.95-3.49 2.6v24.49h-8.16v-33.86h4.99q1.58 0 2.08 1.49Zm56.72 32.37h-8.15v-27.72l-2.93-.46q-.96-.2-1.54-.68-.58-.48-.58-1.37v-3.33h5.05v-2.51q0-2.9.88-5.21.87-2.31 2.51-3.93 1.63-1.62 3.97-2.48 2.34-.85 5.28-.85 2.34 0 4.36.62l-.17 4.1q-.03.46-.26.74-.23.28-.61.43-.38.15-.88.2-.49.04-1.05.04-1.45 0-2.59.32-1.14.31-1.93 1.09-.8.77-1.21 2.04-.41 1.27-.41 3.16v2.24h8.81v5.81h-8.55v27.75Zm31.02-8.75v-5.7q-3.53.16-5.94.61-2.41.44-3.86 1.13-1.45.7-2.08 1.62-.62.93-.62 2.01 0 2.15 1.27 3.07 1.27.93 3.31.93 2.51 0 4.34-.91t3.58-2.76Zm-17.22-17.78-1.45-2.61q5.84-5.34 14.05-5.34 2.97 0 5.32.97 2.34.97 3.96 2.7 1.61 1.74 2.46 4.15.84 2.4.84 5.28v21.38h-3.7q-1.15 0-1.78-.35-.63-.34-.99-1.4l-.73-2.44q-1.28 1.15-2.51 2.03-1.22.87-2.54 1.47-1.32.59-2.82.9-1.5.32-3.31.32-2.15 0-3.96-.58-1.82-.58-3.14-1.73-1.32-1.16-2.05-2.87-.72-1.72-.72-4 0-1.28.43-2.55.43-1.27 1.4-2.43.97-1.15 2.52-2.18 1.56-1.02 3.82-1.78t5.26-1.24q3-.47 6.86-.57v-1.98q0-3.4-1.45-5.04-1.45-1.63-4.19-1.63-1.98 0-3.28.46-1.31.46-2.3 1.04-.99.58-1.79 1.04-.81.46-1.8.46-.86 0-1.46-.44-.59-.45-.95-1.04Zm59.23-3.14-2.14 2.97q-.37.46-.71.73-.35.26-1.01.26-.63 0-1.22-.38t-1.42-.85q-.82-.48-1.96-.86-1.14-.38-2.82-.38-2.15 0-3.77.77-1.61.78-2.68 2.23-1.08 1.45-1.6 3.52-.53 2.06-.53 4.66 0 2.71.57 4.82.58 2.11 1.67 3.55 1.09 1.44 2.64 2.18 1.55.74 3.5.74t3.15-.48q1.2-.48 2.03-1.05.82-.58 1.44-1.06.61-.48 1.36-.48.99 0 1.49.76l2.34 2.97q-1.35 1.58-2.93 2.66-1.59 1.07-3.29 1.71-1.7.65-3.5.91-1.79.26-3.58.26-3.13 0-5.9-1.17-2.78-1.17-4.85-3.41-2.08-2.25-3.29-5.5-1.2-3.25-1.2-7.41 0-3.72 1.07-6.91 1.07-3.18 3.15-5.51 2.08-2.33 5.15-3.65 3.07-1.32 7.06-1.32 3.8 0 6.65 1.23 2.86 1.22 5.13 3.49Zm16.7 30.2q-4.42 0-6.78-2.49-2.36-2.5-2.36-6.88v-18.91h-3.47q-.66 0-1.12-.43-.46-.43-.46-1.29v-3.23l5.45-.89 1.71-9.24q.17-.66.63-1.03.46-.36 1.19-.36h4.22v10.66h9.04v5.81h-9.04v18.34q0 1.59.78 2.48.77.89 2.12.89.76 0 1.28-.18.51-.18.89-.38t.67-.38q.3-.18.6-.18.36 0 .59.18.23.18.5.54l2.44 3.96q-1.78 1.49-4.09 2.25-2.31.76-4.79.76Z"/></svg>