<svg xmlns="http://www.w3.org/2000/svg" width="400" height="400" viewBox="0 0 400 400"><rect width="100%" height="100%" fill="#DDDDDD"/><path fill="#999999" d="M96.555 184.36v20.5q0 2.69-.66 4.84-.66 2.16-1.97 3.68-1.31 1.51-3.26 2.33-1.96.81-4.56.81-1.19 0-2.33-.14-1.14-.14-2.4-.45.07-.88.16-1.76.08-.88.15-1.76.07-.49.39-.78.31-.3.91-.3.37 0 .98.15.6.16 1.53.16 1.25 0 2.22-.36.97-.37 1.62-1.16.64-.79.97-2.06.33-1.26.33-3.07v-20.63h5.92Zm10.21 17.93h10.25q0-1.06-.29-1.99-.3-.94-.9-1.64-.59-.71-1.5-1.11-.92-.41-2.13-.41-2.35 0-3.7 1.34-1.36 1.34-1.73 3.81Zm13.86 3.28h-13.97q.13 1.73.62 3 .48 1.26 1.27 2.09.79.82 1.88 1.23 1.09.41 2.41.41t2.28-.31q.96-.31 1.67-.68.72-.38 1.26-.68.53-.31 1.04-.31.68 0 1.01.5l1.56 1.98q-.9 1.06-2.02 1.78-1.12.71-2.34 1.14-1.22.43-2.49.6-1.26.18-2.45.18-2.36 0-4.38-.78t-3.52-2.31q-1.49-1.53-2.35-3.78-.86-2.26-.86-5.23 0-2.31.75-4.34.74-2.04 2.14-3.55 1.4-1.5 3.41-2.38 2.01-.88 4.54-.88 2.14 0 3.94.68 1.81.68 3.1 1.99 1.3 1.31 2.04 3.21t.74 4.35q0 1.23-.27 1.66-.26.43-1.01.43Zm20.35-9.53-1.23 1.96q-.22.35-.46.49-.25.15-.62.15-.4 0-.85-.22-.45-.22-1.04-.5-.6-.27-1.35-.49-.76-.22-1.8-.22-1.6 0-2.52.68-.91.68-.91 1.78 0 .73.47 1.22.48.5 1.26.87t1.77.67q.99.3 2.01.65 1.02.35 2.01.8.99.45 1.78 1.15.78.69 1.25 1.66t.47 2.33q0 1.63-.58 3-.58 1.38-1.73 2.38-1.14 1-2.82 1.56-1.69.56-3.89.56-1.16 0-2.27-.21-1.12-.21-2.14-.58t-1.89-.88q-.87-.51-1.53-1.1l1.25-2.07q.25-.37.58-.57.33-.2.83-.2.51 0 .96.29.45.28 1.04.61.6.33 1.4.62.8.29 2.04.29.96 0 1.66-.23.69-.24 1.14-.61.45-.37.66-.87.21-.49.21-1.02 0-.79-.47-1.3-.48-.51-1.26-.88t-1.78-.67q-1-.3-2.04-.65-1.05-.35-2.05-.82-1-.48-1.78-1.2-.78-.73-1.26-1.79-.47-1.05-.47-2.55 0-1.38.55-2.64.55-1.25 1.62-2.19 1.06-.93 2.66-1.49 1.59-.56 3.68-.56 2.34 0 4.25.77 1.91.77 3.19 2.02Zm18.35-2.44h5.43v22.57h-3.32q-1.08 0-1.36-.99l-.38-1.8q-1.38 1.4-3.06 2.27-1.67.87-3.93.87-1.85 0-3.27-.62-1.42-.63-2.39-1.78-.97-1.14-1.46-2.71-.5-1.58-.5-3.47V193.6h5.44v14.34q0 2.07.96 3.2.95 1.14 2.87 1.14 1.4 0 2.64-.63 1.23-.63 2.33-1.73V193.6Zm25.8 2.44-1.23 1.96q-.22.35-.46.49-.24.15-.62.15-.39 0-.84-.22-.45-.22-1.05-.5-.59-.27-1.35-.49-.76-.22-1.79-.22-1.61 0-2.52.68-.92.68-.92 1.78 0 .73.48 1.22.47.5 1.25.87t1.77.67q.99.3 2.02.65 1.02.35 2.01.8.99.45 1.77 1.15.78.69 1.25 1.66.48.97.48 2.33 0 1.63-.59 3-.58 1.38-1.72 2.38-1.15 1-2.83 1.56-1.68.56-3.88.56-1.17 0-2.28-.21-1.11-.21-2.13-.58-1.03-.37-1.9-.88-.87-.51-1.53-1.1l1.26-2.07q.24-.37.57-.57.33-.2.84-.2.5 0 .95.29.45.28 1.05.61.59.33 1.4.62.8.29 2.03.29.97 0 1.66-.23.69-.24 1.15-.61.45-.37.66-.87.2-.49.2-1.02 0-.79-.47-1.3t-1.25-.88q-.78-.37-1.78-.67-1.01-.3-2.05-.65-1.05-.35-2.05-.82-1-.48-1.78-1.2-.78-.73-1.25-1.79-.48-1.05-.48-2.55 0-1.38.55-2.64.55-1.25 1.62-2.19 1.07-.93 2.66-1.49 1.6-.56 3.69-.56 2.33 0 4.24.77 1.92.77 3.19 2.02Zm15.21-2.44h5.45v22.57h-5.45V193.6Zm6.2-6.58q0 .7-.29 1.32-.28.62-.75 1.08-.48.46-1.12.74-.63.27-1.36.27-.7 0-1.33-.27-.63-.28-1.09-.74-.46-.46-.74-1.08-.27-.62-.27-1.32 0-.73.27-1.36.28-.64.74-1.1.46-.47 1.09-.74.63-.28 1.33-.28.73 0 1.36.28.64.27 1.12.74.47.46.75 1.1.29.63.29 1.36Zm19.8 9.02-1.23 1.96q-.22.35-.46.49-.25.15-.62.15-.4 0-.85-.22-.45-.22-1.04-.5-.6-.27-1.35-.49-.76-.22-1.8-.22-1.6 0-2.52.68-.91.68-.91 1.78 0 .73.47 1.22.48.5 1.26.87t1.77.67q.99.3 2.01.65 1.02.35 2.01.8.99.45 1.78 1.15.78.69 1.25 1.66t.47 2.33q0 1.63-.58 3-.58 1.38-1.73 2.38-1.14 1-2.82 1.56-1.69.56-3.89.56-1.16 0-2.27-.21-1.12-.21-2.14-.58t-1.89-.88q-.87-.51-1.53-1.1l1.25-2.07q.25-.37.58-.57.33-.2.83-.2.51 0 .96.29.45.28 1.04.61.6.33 1.4.62.8.29 2.04.29.96 0 1.66-.23.69-.24 1.14-.61.45-.37.66-.87.21-.49.21-1.02 0-.79-.47-1.3-.48-.51-1.26-.88t-1.78-.67q-1-.3-2.04-.65-1.05-.35-2.05-.82-1-.48-1.78-1.2-.78-.73-1.26-1.79-.47-1.05-.47-2.55 0-1.38.55-2.64.55-1.25 1.62-2.19 1.06-.93 2.66-1.49 1.59-.56 3.68-.56 2.34 0 4.25.77 1.91.77 3.19 2.02Zm32.63.35-1.43 1.98q-.25.31-.48.49-.23.17-.67.17-.42 0-.81-.25-.4-.25-.95-.57-.55-.32-1.31-.58-.76-.25-1.88-.25-1.43 0-2.51.52-1.07.52-1.79 1.48-.71.97-1.07 2.35-.35 1.37-.35 3.11 0 1.8.39 3.21.38 1.41 1.11 2.37.72.95 1.76 1.45 1.03.49 2.33.49t2.1-.32q.8-.31 1.35-.7.55-.38.96-.7.41-.32.91-.32.66 0 .99.5l1.57 1.98q-.91 1.06-1.96 1.78-1.06.71-2.19 1.14-1.13.43-2.33.6-1.2.18-2.39.18-2.09 0-3.94-.78t-3.23-2.28q-1.39-1.49-2.19-3.66t-.8-4.94q0-2.49.71-4.61.72-2.12 2.1-3.67 1.39-1.55 3.43-2.43 2.05-.88 4.71-.88 2.53 0 4.44.81 1.9.81 3.42 2.33Zm13.59-3.14q2.51 0 4.57.81 2.05.81 3.52 2.31 1.46 1.5 2.25 3.65.79 2.16.79 4.82 0 2.68-.79 4.84-.79 2.16-2.25 3.67-1.47 1.52-3.52 2.34-2.06.81-4.57.81-2.53 0-4.6-.81-2.06-.82-3.53-2.34-1.46-1.51-2.26-3.67-.81-2.16-.81-4.84 0-2.66.81-4.82.8-2.15 2.26-3.65 1.47-1.5 3.53-2.31 2.07-.81 4.6-.81Zm0 19.07q2.82 0 4.17-1.89t1.35-5.55q0-3.65-1.35-5.56-1.35-1.92-4.17-1.92-2.86 0-4.23 1.93-1.38 1.92-1.38 5.55t1.38 5.54q1.37 1.9 4.23 1.9Zm25.28-19.07q2.51 0 4.57.81 2.05.81 3.52 2.31 1.46 1.5 2.25 3.65.79 2.16.79 4.82 0 2.68-.79 4.84-.79 2.16-2.25 3.67-1.47 1.52-3.52 2.34-2.06.81-4.57.81-2.53 0-4.6-.81-2.07-.82-3.53-2.34-1.46-1.51-2.26-3.67-.81-2.16-.81-4.84 0-2.66.81-4.82.8-2.15 2.26-3.65 1.46-1.5 3.53-2.31t4.6-.81Zm0 19.07q2.82 0 4.17-1.89t1.35-5.55q0-3.65-1.35-5.56-1.35-1.92-4.17-1.92-2.86 0-4.23 1.93-1.38 1.92-1.38 5.55t1.38 5.54q1.37 1.9 4.23 1.9Zm15.36-28.84h5.43v32.69h-5.43v-32.69Z"/></svg>