<svg xmlns="http://www.w3.org/2000/svg" width="400" height="400" viewBox="0 0 400 400"><rect width="100%" height="100%" fill="#DDDDDD"/><path fill="#999999" d="M104.4 234.57h39.88v15.32H85.84v-99.77h18.56v84.45Zm116.06-69.69h-44.3v29.53h37.39v14.84h-37.39v40.64h-18.63v-99.77h62.93v14.76Zm83.69 61.48q1.52 0 2.69 1.17l7.32 7.94q-6.07 7.52-14.94 11.52t-21.29 4q-11.11 0-19.97-3.79-8.87-3.8-15.15-10.56-6.28-6.76-9.62-16.14-3.35-9.39-3.35-20.5 0-11.24 3.59-20.59t10.11-16.12q6.52-6.76 15.56-10.52 9.03-3.76 20.01-3.76 10.9 0 19.35 3.59 8.45 3.59 14.39 9.38l-6.21 8.63q-.56.83-1.42 1.45-.86.62-2.38.62-1.03 0-2.14-.59-1.1-.58-2.41-1.45-1.31-.86-3.04-1.89-1.72-1.04-4-1.9-2.28-.86-5.28-1.45-3-.59-6.93-.59-6.7 0-12.25 2.38-5.56 2.38-9.56 6.9-4 4.52-6.21 11.04T248.81 200q0 8.42 2.38 14.98 2.39 6.55 6.46 11.04 4.07 4.48 9.59 6.86t11.87 2.38q3.79 0 6.86-.41 3.07-.42 5.66-1.31 2.59-.9 4.9-2.31 2.31-1.42 4.59-3.49.69-.62 1.45-1 .75-.38 1.58-.38Z"/></svg>