<svg xmlns="http://www.w3.org/2000/svg" width="400" height="400" viewBox="0 0 400 400"><rect width="100%" height="100%" fill="#DDDDDD"/><path fill="#999999" d="M97.21 185.87v3.54h-6.98v19.6h-4.3v-19.6h-6.98v-3.54h18.26Zm6.37-.64v9.12q.96-.89 2.11-1.45 1.15-.56 2.7-.56 1.35 0 2.39.45 1.04.46 1.73 1.28.7.83 1.06 1.97.36 1.15.36 2.52v10.45h-3.95v-10.45q0-1.5-.69-2.33-.69-.82-2.1-.82-1.02 0-1.92.46-.89.47-1.69 1.27v11.87h-3.95v-23.78h3.95Zm17.21 13.68h7.46q0-.76-.22-1.44-.21-.68-.64-1.2-.44-.51-1.1-.8-.66-.3-1.54-.3-1.72 0-2.7.98-.98.97-1.26 2.76Zm10.08 2.39h-10.16q.1 1.26.45 2.18.35.92.93 1.52.58.6 1.37.9.79.29 1.75.29t1.66-.22q.69-.22 1.21-.5.52-.27.91-.49.4-.23.76-.23.5 0 .74.37l1.14 1.44q-.66.77-1.48 1.29-.81.52-1.7.83-.89.31-1.81.44t-1.78.13q-1.71 0-3.19-.57-1.47-.57-2.56-1.68-1.08-1.11-1.71-2.75-.62-1.64-.62-3.8 0-1.68.54-3.16.55-1.48 1.56-2.58 1.02-1.09 2.48-1.73 1.47-.64 3.31-.64 1.55 0 2.86.49 1.31.5 2.26 1.45.94.95 1.48 2.34.53 1.38.53 3.16 0 .89-.19 1.21-.19.31-.74.31Zm34.36-3.86q0 2.55-.84 4.71-.84 2.17-2.38 3.76-1.54 1.58-3.7 2.47-2.16.89-4.8.89-2.62 0-4.78-.89t-3.7-2.47q-1.55-1.59-2.4-3.76-.84-2.16-.84-4.71 0-2.54.84-4.71.85-2.17 2.4-3.75 1.54-1.59 3.7-2.47 2.16-.89 4.78-.89 1.76 0 3.32.41 1.55.4 2.84 1.15 1.3.74 2.33 1.81 1.03 1.06 1.75 2.37t1.1 2.85q.38 1.54.38 3.23Zm-4.4 0q0-1.9-.52-3.41-.51-1.52-1.45-2.57-.95-1.06-2.3-1.62-1.35-.56-3.05-.56-1.69 0-3.04.56-1.36.56-2.31 1.62-.95 1.05-1.46 2.57-.51 1.51-.51 3.41 0 1.91.51 3.42t1.46 2.56q.95 1.05 2.31 1.61 1.35.56 3.04.56 1.7 0 3.05-.56 1.35-.56 2.3-1.61.94-1.05 1.45-2.56.52-1.51.52-3.42Zm17.87 6.71v-7.36q-.67-.82-1.47-1.16-.79-.33-1.7-.33-.9 0-1.62.33-.72.34-1.23 1.02-.51.68-.78 1.73-.27 1.05-.27 2.47 0 1.44.23 2.44t.66 1.63q.43.63 1.06.91.62.28 1.39.28 1.23 0 2.1-.51.86-.51 1.63-1.45Zm0-18.92h3.95v23.78h-2.42q-.78 0-.99-.72l-.33-1.58q-1 1.13-2.28 1.84-1.29.7-3 .7-1.35 0-2.47-.56t-1.93-1.62q-.8-1.07-1.24-2.64-.44-1.56-.44-3.58 0-1.82.49-3.39.5-1.57 1.43-2.72.92-1.15 2.22-1.8 1.3-.65 2.91-.65 1.38 0 2.35.43.98.43 1.75 1.17v-8.66Zm7.98 7.36h3.97v16.42h-3.97v-16.42Zm4.51-4.78q0 .51-.2.96-.21.45-.56.78-.34.34-.8.54-.47.2-1 .2-.51 0-.96-.2-.46-.2-.8-.54-.33-.33-.53-.78t-.2-.96q0-.53.2-.99.2-.47.53-.8.34-.34.8-.54.45-.2.96-.2.53 0 1 .2.46.2.8.54.35.33.56.8.2.46.2.99Zm6.92 5.5.27 1.3q.49-.5 1.05-.92.55-.42 1.16-.72.62-.3 1.32-.46.71-.17 1.54-.17 1.34 0 2.38.45 1.04.46 1.74 1.28.7.83 1.06 1.97.36 1.15.36 2.52v10.45h-3.96v-10.45q0-1.5-.68-2.33-.69-.82-2.1-.82-1.02 0-1.92.46-.9.47-1.7 1.27v11.87h-3.95v-16.42h2.42q.77 0 1.01.72Zm27.32 4.2h3.22q1.18 0 2.06-.3.88-.3 1.47-.85.58-.55.87-1.34.29-.79.29-1.77 0-.93-.29-1.68-.29-.75-.86-1.28-.58-.53-1.46-.81t-2.08-.28h-3.22v8.31Zm-4.3-11.64h7.52q2.32 0 4.02.55 1.69.54 2.8 1.52 1.1.97 1.64 2.33.53 1.36.53 2.98 0 1.68-.56 3.08-.56 1.4-1.68 2.41-1.12 1.01-2.81 1.57-1.68.56-3.94.56h-3.22v8.14h-4.3v-23.14Zm22.67 7.72.24 1.85q.77-1.47 1.83-2.31 1.05-.84 2.49-.84 1.14 0 1.83.5l-.26 2.96q-.08.28-.23.4-.15.12-.41.12-.24 0-.71-.08t-.92-.08q-.66 0-1.17.2-.51.19-.92.55-.41.36-.72.87t-.58 1.17v10.11h-3.96v-16.42h2.32q.61 0 .85.22t.32.78Zm15.71-1.25q1.83 0 3.32.59 1.5.59 2.56 1.68 1.07 1.09 1.64 2.66.58 1.56.58 3.5 0 1.95-.58 3.52-.57 1.57-1.64 2.67-1.06 1.11-2.56 1.7-1.49.59-3.32.59-1.84 0-3.34-.59-1.5-.59-2.57-1.7-1.06-1.1-1.65-2.67-.58-1.57-.58-3.52 0-1.94.58-3.5.59-1.57 1.65-2.66 1.07-1.09 2.57-1.68 1.5-.59 3.34-.59Zm0 13.87q2.05 0 3.04-1.38.98-1.37.98-4.03 0-2.65-.98-4.05-.99-1.39-3.04-1.39-2.08 0-3.08 1.4t-1 4.04q0 2.64 1 4.03 1 1.38 3.08 1.38Zm11.25-13.62h3.97v16.98q0 1.07-.28 2.02-.28.94-.9 1.65-.61.71-1.61 1.12-1 .41-2.44.41-.56 0-1.04-.07t-.99-.23l.14-2.13q.05-.32.26-.41.2-.09.8-.09.59 0 1-.12.4-.12.64-.38.24-.27.35-.7.1-.43.1-1.07v-16.98Zm4.51-4.78q0 .51-.2.96-.21.45-.56.78-.34.34-.81.54-.47.2-1 .2-.51 0-.96-.2-.45-.2-.79-.54-.33-.33-.53-.78t-.2-.96q0-.53.2-.99.2-.47.53-.8.34-.34.79-.54t.96-.2q.53 0 1 .2t.81.54q.35.33.56.8.2.46.2.99Zm6.61 11.1h7.46q0-.76-.22-1.44-.21-.68-.65-1.2-.43-.51-1.09-.8-.67-.3-1.55-.3-1.71 0-2.69.98-.99.97-1.26 2.76Zm10.08 2.39H281.8q.1 1.26.45 2.18.35.92.93 1.52.57.6 1.37.9.79.29 1.75.29t1.65-.22q.7-.22 1.22-.5.52-.27.91-.49.39-.23.76-.23.5 0 .74.37l1.13 1.44q-.65.77-1.47 1.29-.81.52-1.7.83-.89.31-1.81.44t-1.78.13q-1.72 0-3.19-.57T280.2 207q-1.09-1.11-1.71-2.75-.62-1.64-.62-3.8 0-1.68.54-3.16.54-1.48 1.56-2.58 1.02-1.09 2.48-1.73 1.46-.64 3.3-.64 1.56 0 2.87.49 1.31.5 2.25 1.45.95.95 1.48 2.34.54 1.38.54 3.16 0 .89-.19 1.21-.19.31-.74.31Zm16.69-6.67-1.04 1.44q-.18.22-.34.35-.17.13-.49.13-.31 0-.59-.19-.29-.18-.69-.41-.4-.24-.95-.42-.56-.18-1.37-.18-1.04 0-1.83.37-.78.38-1.3 1.08-.52.71-.78 1.71-.25 1-.25 2.26 0 1.31.28 2.34.28 1.02.81 1.72.52.69 1.28 1.05.75.36 1.69.36.95 0 1.53-.23.58-.23.98-.51t.7-.51q.3-.24.66-.24.48 0 .72.37l1.14 1.44q-.66.77-1.42 1.29-.77.52-1.6.83-.82.31-1.69.44t-1.74.13q-1.52 0-2.86-.57-1.35-.57-2.35-1.65-1.01-1.09-1.6-2.67-.58-1.57-.58-3.59 0-1.81.52-3.35.52-1.55 1.53-2.67 1.01-1.13 2.49-1.77 1.49-.64 3.43-.64 1.84 0 3.22.59 1.39.59 2.49 1.7Zm8.1 14.64q-2.15 0-3.29-1.21-1.15-1.21-1.15-3.34v-9.17h-1.68q-.32 0-.54-.2-.22-.21-.22-.63v-1.57l2.64-.43.83-4.48q.08-.32.3-.49.23-.18.58-.18h2.05v5.17h4.38v2.81h-4.38v8.9q0 .77.37 1.2.38.43 1.03.43.37 0 .62-.09.25-.08.43-.18.19-.1.33-.18.14-.09.29-.09.17 0 .29.09.11.08.24.26l1.18 1.92q-.86.72-1.98 1.09-1.12.37-2.32.37Z"/></svg>